<svg width="15" height="15" viewBox="0 0 15 15" fill="none" xmlns="http://www.w3.org/2000/svg">
<path d="M9.56232 3.95751L2.42043 11.0994L1.95342 12.6924L3.51408 12.2412L10.6797 5.07565L9.56232 3.95751ZM10.7808 2.73901L11.8982 3.85636L12.9397 2.81487C13.0137 2.74078 13.0553 2.6403 13.0553 2.53554C13.0553 2.43077 13.0137 2.33029 12.9397 2.2562L12.3802 1.69752C12.3061 1.62345 12.2056 1.58184 12.1009 1.58184C11.9961 1.58184 11.8956 1.62345 11.8215 1.69752L10.7816 2.73901H10.7808ZM13.4983 0.580171L14.057 1.13885C14.4274 1.50931 14.6354 2.0117 14.6354 2.53554C14.6354 3.05937 14.4274 3.56176 14.057 3.93222L4.34379 13.6462L1.00913 14.6103C0.873201 14.6495 0.729249 14.6515 0.592296 14.616C0.455343 14.5806 0.330412 14.509 0.230545 14.4089C0.130678 14.3087 0.0595375 14.1835 0.0245501 14.0464C-0.0104372 13.9094 -0.00798833 13.7654 0.031641 13.6296L1.01782 10.2673L10.7057 0.579381C11.0762 0.209029 11.5786 0.000976562 12.1024 0.000976562C12.6263 0.000976563 13.1287 0.209029 13.4991 0.579381L13.4983 0.580171Z" fill="white"/>
</svg>
