<svg width="13" height="12" viewBox="0 0 13 12" fill="none" xmlns="http://www.w3.org/2000/svg">
<path d="M7.20329 5.4H9.62296C9.7834 5.4 9.93726 5.46321 10.0507 5.57574C10.1642 5.68826 10.2279 5.84087 10.2279 6C10.2279 6.15913 10.1642 6.31174 10.0507 6.42426C9.93726 6.53679 9.7834 6.6 9.62296 6.6H6.59837C6.43794 6.6 6.28408 6.53679 6.17063 6.42426C6.05719 6.31174 5.99346 6.15913 5.99346 6V2.4C5.99346 2.24087 6.05719 2.08826 6.17063 1.97574C6.28408 1.86321 6.43794 1.8 6.59837 1.8C6.75881 1.8 6.91267 1.86321 7.02612 1.97574C7.13956 2.08826 7.20329 2.24087 7.20329 2.4V5.4ZM6.59837 12C3.25741 12 0.549194 9.3138 0.549194 6C0.549194 2.6862 3.25741 0 6.59837 0C9.93934 0 12.6476 2.6862 12.6476 6C12.6476 9.3138 9.93934 12 6.59837 12ZM6.59837 10.8C7.88185 10.8 9.11276 10.2943 10.0203 9.39411C10.9279 8.49394 11.4377 7.27304 11.4377 6C11.4377 4.72696 10.9279 3.50606 10.0203 2.60589C9.11276 1.70571 7.88185 1.2 6.59837 1.2C5.3149 1.2 4.08399 1.70571 3.17644 2.60589C2.26889 3.50606 1.75903 4.72696 1.75903 6C1.75903 7.27304 2.26889 8.49394 3.17644 9.39411C4.08399 10.2943 5.3149 10.8 6.59837 10.8Z" fill="white"/>
</svg>
