<svg width="21" height="12" viewBox="0 0 21 12" fill="none" xmlns="http://www.w3.org/2000/svg">
<path d="M18.0333 5.93521C18.0333 4.14478 14.2834 1.9933 10.0479 1.97846C5.8413 1.96362 2.0765 4.13291 2.0765 5.93521C2.0765 7.74048 5.82036 9.89791 10.0519 9.89197C14.2954 9.88604 18.0333 7.73554 18.0333 5.93521ZM10.0549 11.8703C5.02651 11.8773 0.0819092 9.21339 0.0819092 5.93521C0.0819092 2.65704 5.05244 -0.0167373 10.0549 7.88898e-05C15.0573 0.0168951 20.0279 2.65704 20.0279 5.93521C20.0279 9.21339 15.0833 11.8634 10.0549 11.8703ZM10.0549 9.89197C8.99688 9.89197 7.98222 9.4751 7.2341 8.73306C6.48598 7.99103 6.06569 6.98461 6.06569 5.93521C6.06569 4.88582 6.48598 3.8794 7.2341 3.13736C7.98222 2.39533 8.99688 1.97846 10.0549 1.97846C11.1129 1.97846 12.1275 2.39533 12.8757 3.13736C13.6238 3.8794 14.0441 4.88582 14.0441 5.93521C14.0441 6.98461 13.6238 7.99103 12.8757 8.73306C12.1275 9.4751 11.1129 9.89197 10.0549 9.89197ZM10.0549 7.91359C10.5839 7.91359 11.0912 7.70516 11.4653 7.33414C11.8393 6.96312 12.0495 6.45991 12.0495 5.93521C12.0495 5.41052 11.8393 4.90731 11.4653 4.53629C11.0912 4.16527 10.5839 3.95684 10.0549 3.95684C9.52588 3.95684 9.01855 4.16527 8.64449 4.53629C8.27043 4.90731 8.06029 5.41052 8.06029 5.93521C8.06029 6.45991 8.27043 6.96312 8.64449 7.33414C9.01855 7.70516 9.52588 7.91359 10.0549 7.91359Z" fill="white"/>
</svg>
