<svg width="6" height="20" viewBox="0 0 6 20" fill="none" xmlns="http://www.w3.org/2000/svg">
<path d="M2.8441 6.06185C3.59841 6.06185 4.32183 5.76041 4.85521 5.22386C5.38858 4.6873 5.68823 3.95958 5.68823 3.20077C5.68823 2.44196 5.38858 1.71424 4.85521 1.17768C4.32183 0.641125 3.59841 0.339691 2.8441 0.339691C2.08979 0.339691 1.36638 0.641125 0.833 1.17768C0.299622 1.71424 -2.6226e-05 2.44196 -2.6226e-05 3.20077C-2.6226e-05 3.95958 0.299622 4.6873 0.833 5.22386C1.36638 5.76041 2.08979 6.06185 2.8441 6.06185ZM2.8441 19.4135C3.59841 19.4135 4.32183 19.1121 4.85521 18.5756C5.38858 18.039 5.68823 17.3113 5.68823 16.5525C5.68823 15.7937 5.38858 15.0659 4.85521 14.5294C4.32183 13.9928 3.59841 13.6914 2.8441 13.6914C2.08979 13.6914 1.36638 13.9928 0.833 14.5294C0.299622 15.0659 -2.6226e-05 15.7937 -2.6226e-05 16.5525C-2.6226e-05 17.3113 0.299622 18.039 0.833 18.5756C1.36638 19.1121 2.08979 19.4135 2.8441 19.4135ZM2.8441 12.7377C3.59841 12.7377 4.32183 12.4363 4.85521 11.8997C5.38858 11.3632 5.68823 10.6354 5.68823 9.87662C5.68823 9.11782 5.38858 8.39009 4.85521 7.85353C4.32183 7.31698 3.59841 7.01554 2.8441 7.01554C2.08979 7.01554 1.36638 7.31698 0.833 7.85353C0.299622 8.39009 -2.6226e-05 9.11782 -2.6226e-05 9.87662C-2.6226e-05 10.6354 0.299622 11.3632 0.833 11.8997C1.36638 12.4363 2.08979 12.7377 2.8441 12.7377Z" fill="white"/>
</svg>
