<svg width="25" height="20" viewBox="0 0 25 20" fill="none" xmlns="http://www.w3.org/2000/svg">
<path d="M23.9811 5.8749H20.7092V0.472345C20.7092 0.211503 20.4979 0 20.2369 0H8.41098C8.14993 0 7.93863 0.211503 7.93863 0.472345V11.0599L5.23191 10.4764C5.0921 10.4467 4.94681 10.4808 4.83569 10.5707C4.72456 10.6601 4.66003 10.7952 4.66003 10.938V18.489C4.66003 18.6318 4.72456 18.767 4.83569 18.8564C4.92046 18.9249 5.02526 18.9614 5.13238 18.9614C5.1657 18.9614 5.1988 18.958 5.23191 18.9508L7.29042 18.5072L7.53777 19.564C7.58859 19.7814 7.78216 19.9286 7.99725 19.9286C8.03057 19.9286 8.06367 19.9253 8.09741 19.9181L11.6636 19.1497C11.9131 19.0959 12.0746 18.8536 12.0284 18.6027L11.8496 17.6302L13.6607 17.5119C13.8672 17.4982 14.0285 17.3505 14.0793 17.1591H17.2352C17.2369 17.1591 17.2381 17.1599 17.2398 17.1599H22.1762C23.4318 17.1599 24.4532 16.1385 24.4532 14.8827V6.34704C24.4532 6.0862 24.2419 5.8747 23.9809 5.8747L23.9811 5.8749ZM8.35209 18.8971L8.21418 18.3083L10.9072 17.7278L11.0164 18.3227L8.35209 18.8971ZM13.1578 16.5977L11.0512 16.7354C11.0282 16.7371 11.005 16.7403 10.9825 16.7451L5.6049 17.9043L5.60469 11.5236L10.9822 12.6827C11.0048 12.6876 11.028 12.6908 11.051 12.6924L13.1575 12.8301L13.1578 16.5977ZM14.1024 16.2142V12.3871C14.1024 12.1383 13.9091 11.932 13.6611 11.9156L11.1476 11.7513L8.88366 11.2634L8.88345 0.944637H19.7647V14.8154C19.7647 14.8171 19.7655 14.8184 19.7655 14.82V14.8831C19.7655 15.3816 19.931 15.8392 20.2037 16.2145L14.1024 16.2142ZM23.5089 14.8827C23.5089 15.6174 22.9111 16.2152 22.1766 16.2152H22.0425C21.3082 16.2152 20.7102 15.6174 20.7102 14.8827V6.8194H23.5088L23.5089 14.8827Z" fill="white"/>
<path d="M14.2719 6.5907V2.26726C14.2719 2.00642 14.0606 1.79491 13.7995 1.79491H10.1218C9.86071 1.79491 9.64941 2.00642 9.64941 2.26726V6.5907C9.64941 6.85155 9.86071 7.06305 10.1218 7.06305H13.7995C14.0608 7.06305 14.2719 6.85155 14.2719 6.5907ZM13.3272 6.11836H10.5941V2.73961H13.3272V6.11836Z" fill="white"/>
<path d="M18.516 1.79491H15.3996C15.1385 1.79491 14.9272 2.00642 14.9272 2.26726C14.9272 2.5281 15.1385 2.73961 15.3996 2.73961H18.516C18.777 2.73961 18.9883 2.5281 18.9883 2.26726C18.9883 2.00642 18.777 1.79491 18.516 1.79491Z" fill="white"/>
<path d="M18.516 3.7318H15.3996C15.1385 3.7318 14.9272 3.9433 14.9272 4.20415C14.9272 4.46499 15.1385 4.67649 15.3996 4.67649H18.516C18.777 4.67649 18.9883 4.46499 18.9883 4.20415C18.9883 3.9433 18.777 3.7318 18.516 3.7318Z" fill="white"/>
<path d="M18.516 5.66922H15.3996C15.1385 5.66922 14.9272 5.88073 14.9272 6.14157C14.9272 6.40241 15.1385 6.61391 15.3996 6.61391H18.516C18.777 6.61391 18.9883 6.40241 18.9883 6.14157C18.9883 5.88073 18.777 5.66922 18.516 5.66922Z" fill="white"/>
<path d="M1.05865 11.5905L3.34194 12.4328C3.39592 12.4528 3.45074 12.4623 3.50515 12.4623C3.69704 12.4623 3.87796 12.344 3.94839 12.1532C4.03843 11.9086 3.91339 11.6367 3.66836 11.5465L1.38507 10.7043C1.14131 10.614 0.869703 10.7393 0.778846 10.9839C0.688803 11.2287 0.813828 11.5003 1.05865 11.5905Z" fill="white"/>
<path d="M3.34208 16.9953L1.05879 17.8375C0.813761 17.9277 0.688927 18.1993 0.778759 18.4441C0.849401 18.635 1.02969 18.7533 1.222 18.7533C1.27641 18.7533 1.33187 18.7438 1.38521 18.7238L3.6685 17.8815C3.91354 17.7913 4.03837 17.5197 3.94854 17.2749C3.85807 17.0298 3.58456 16.9039 3.34208 16.9953Z" fill="white"/>
<path d="M3.5051 14.2416H0.885065C0.624012 14.2416 0.41272 14.4531 0.41272 14.714C0.41272 14.9748 0.624012 15.1863 0.885065 15.1863H3.5051C3.76615 15.1863 3.97744 14.9748 3.97744 14.714C3.97744 14.4531 3.76615 14.2416 3.5051 14.2416Z" fill="white"/>
<path d="M17.8628 8.3705H11.2488C10.9878 8.3705 10.7765 8.58201 10.7765 8.84285C10.7765 9.10369 10.9878 9.31519 11.2488 9.31519H17.8628C18.1238 9.31519 18.3351 9.10369 18.3351 8.84285C18.3351 8.58201 18.1238 8.3705 17.8628 8.3705Z" fill="white"/>
<path d="M17.8628 10.4661H11.2488C10.9878 10.4661 10.7765 10.6776 10.7765 10.9384C10.7765 11.1993 10.9878 11.4108 11.2488 11.4108H17.8628C18.1238 11.4108 18.3351 11.1993 18.3351 10.9384C18.3351 10.6776 18.1238 10.4661 17.8628 10.4661Z" fill="white"/>
</svg>
