<svg width="17" height="20" viewBox="0 0 17 20" fill="none" xmlns="http://www.w3.org/2000/svg">
<path d="M9.03246 19.9349L8.44369 20L8.83874 19.5585C10.1819 18.0578 9.67358 16.7646 8.28668 16.7646H2.94507C1.31847 16.7646 0 15.446 0 13.8195V2.94522C0 1.31862 1.31847 0 2.94507 0H13.8194C15.446 0 16.7644 1.31862 16.7644 2.94522V13.8195C16.7644 15.446 15.446 16.7646 13.8194 16.7646H12.2003C11.869 18.6656 10.8024 19.7391 9.03258 19.9349L9.03246 19.9349ZM11.7826 16.5057L11.8106 16.3114H13.8192C15.1955 16.3114 16.3113 15.1957 16.3113 13.8195V2.9452C16.3113 1.56878 15.1955 0.45312 13.8192 0.45312H2.94494C1.56864 0.45312 0.452862 1.56878 0.452862 2.9452V13.8195C0.452862 15.1958 1.56864 16.3114 2.94494 16.3114H8.28655C9.91707 16.3114 10.6386 17.7738 9.55239 19.381C10.8167 19.0505 11.5522 18.1044 11.7825 16.5058L11.7826 16.5057Z" fill="white"/>
<path d="M15.0277 0.31427L15.293 0.567012L0.407254 12.1963H0.0446777V12.1078C0.0446777 12.052 0.0704679 11.9994 0.114464 11.9651L15.0277 0.31427ZM16.4942 4.9207L1.77353 16.4214L1.55963 16.1286L16.3564 4.56848L16.4942 4.9207Z" fill="white"/>
<path d="M0.172241 12.782L15.5885 0.737907L15.7833 1.04587L0.407421 13.0581L0.172241 12.782ZM16.6091 3.96874L1.19171 16.0136L1.02134 15.6866L16.3564 3.70628L16.6091 3.96874Z" fill="white"/>
<path d="M4.07764 6.19331L3.19807 7.36039L3.01997 5.90991L1.67462 6.48093L2.24564 5.13559L0.795166 4.95748L1.96225 4.07791L0.795166 3.19845L2.24564 3.02035L1.67462 1.67501L3.01997 2.24602L3.19807 0.795547L4.07764 1.96263L4.9571 0.795547L5.13521 2.24602L6.48055 1.67501L5.90953 3.02035L7.36001 3.19845L6.19292 4.07791L7.36001 4.95748L5.90953 5.13559L6.48055 6.48093L5.13521 5.90991L4.9571 7.36039L4.07764 6.19331ZM4.07764 6.11684C5.2036 6.11684 6.11658 5.20402 6.11658 4.07791C6.11658 2.95196 5.2036 2.03898 4.07764 2.03898C2.95153 2.03898 2.03872 2.95196 2.03872 4.07791C2.03872 5.20402 2.95153 6.11684 4.07764 6.11684Z" fill="white"/>
<path d="M5.66342 4.07787C5.66342 4.95383 4.95344 5.66381 4.07764 5.66381C3.20167 5.66381 2.4917 4.95383 2.4917 4.07787C2.4917 3.20206 3.20167 2.49209 4.07764 2.49209C4.95344 2.49209 5.66342 3.20206 5.66342 4.07787Z" fill="white"/>
</svg>
