<svg width="13" height="18" viewBox="0 0 13 18" fill="none" xmlns="http://www.w3.org/2000/svg">
<path d="M3.1806 9.063C3.29125 9.01579 3.41024 8.99124 3.53054 8.9908C3.65085 8.99037 3.77001 9.01406 3.881 9.06047C3.99199 9.10688 4.09255 9.17507 4.17674 9.26101C4.26092 9.34695 4.32702 9.44889 4.37113 9.56082C4.41523 9.67274 4.43646 9.79237 4.43354 9.91264C4.43062 10.0329 4.40361 10.1514 4.35413 10.261C4.30464 10.3707 4.23367 10.4693 4.14541 10.551C4.05716 10.6328 3.95341 10.696 3.8403 10.737C3.23869 10.974 2.72234 11.3867 2.35845 11.9212C1.99456 12.4557 1.79997 13.0874 1.8 13.734V15.3C1.8 15.5387 1.89482 15.7676 2.0636 15.9364C2.23239 16.1052 2.4613 16.2 2.7 16.2H9.9C10.1387 16.2 10.3676 16.1052 10.5364 15.9364C10.7052 15.7676 10.8 15.5387 10.8 15.3V13.8177C10.8001 13.1503 10.5974 12.4987 10.2187 11.9491C9.84001 11.3996 9.30327 10.9781 8.6796 10.7406C8.56578 10.7011 8.46106 10.6392 8.37163 10.5584C8.2822 10.4777 8.20988 10.3799 8.15897 10.2707C8.10806 10.1615 8.07959 10.0432 8.07524 9.9228C8.0709 9.80241 8.09077 9.68237 8.13367 9.5698C8.17658 9.45722 8.24165 9.35441 8.32503 9.26745C8.40841 9.1805 8.5084 9.11116 8.61907 9.06357C8.72974 9.01597 8.84884 8.99107 8.96931 8.99036C9.08978 8.98964 9.20917 9.01312 9.3204 9.0594C10.2848 9.42676 11.1149 10.0785 11.7006 10.9283C12.2863 11.778 12.5999 12.7857 12.6 13.8177V15.3C12.6 16.0161 12.3155 16.7028 11.8092 17.2092C11.3028 17.7155 10.6161 18 9.9 18H2.7C1.98392 18 1.29716 17.7155 0.790811 17.2092C0.284463 16.7028 0 16.0161 0 15.3L0 13.734C0.000123841 12.7261 0.303549 11.7416 0.870805 10.9086C1.43806 10.0755 2.24289 9.43243 3.1806 9.063ZM6.3 0C7.25478 0 8.17045 0.379285 8.84558 1.05442C9.52071 1.72955 9.9 2.64522 9.9 3.6V5.4C9.9 6.35478 9.52071 7.27045 8.84558 7.94558C8.17045 8.62072 7.25478 9 6.3 9C5.34522 9 4.42955 8.62072 3.75441 7.94558C3.07928 7.27045 2.7 6.35478 2.7 5.4V3.6C2.7 2.64522 3.07928 1.72955 3.75441 1.05442C4.42955 0.379285 5.34522 0 6.3 0ZM6.3 1.8C5.82261 1.8 5.36477 1.98964 5.02721 2.32721C4.68964 2.66477 4.5 3.12261 4.5 3.6V5.4C4.5 5.87739 4.68964 6.33523 5.02721 6.67279C5.36477 7.01036 5.82261 7.2 6.3 7.2C6.77739 7.2 7.23522 7.01036 7.57279 6.67279C7.91036 6.33523 8.1 5.87739 8.1 5.4V3.6C8.1 3.12261 7.91036 2.66477 7.57279 2.32721C7.23522 1.98964 6.77739 1.8 6.3 1.8Z" fill="#565656"/>
</svg>
