<svg width="20" height="22" viewBox="0 0 20 22" fill="none" xmlns="http://www.w3.org/2000/svg">
<path d="M3.84217 10.1212H9.52087C9.52087 10.4949 9.82246 10.7966 10.1963 10.7966C10.5701 10.7966 10.8718 10.4951 10.8718 10.1212H16.5505C16.9177 10.1212 17.216 9.82279 17.216 9.45569V2.55747C17.216 2.19023 16.9176 1.89195 16.5505 1.89195H16.3767V9.12132C16.3767 9.3017 16.2293 9.44917 16.0489 9.44917H4.3441C4.16372 9.44917 4.01625 9.3017 4.01625 9.12132V1.89195H3.84252C3.47528 1.89195 3.177 2.19037 3.177 2.55747V9.45569C3.17685 9.82308 3.47527 10.1215 3.84236 10.1215L3.84217 10.1212Z" fill="white"/>
<path d="M14.0913 11.2395L14.7011 13.5344L15.3305 12.9017L15.7535 13.3246L16.1764 12.9017L15.7535 12.4787L16.3864 11.8493L14.0913 11.2395Z" fill="white"/>
<path d="M15.7208 1H11.5603C10.9899 1 10.5243 1.46566 10.5243 2.03605V8.79322H15.7208L15.7208 1ZM14.6389 7.61304H11.6095C11.4291 7.61304 11.2816 7.46557 11.2816 7.2852C11.2816 7.10482 11.4291 6.95735 11.6095 6.95735H14.6389C14.8193 6.95735 14.9667 7.10482 14.9667 7.2852C14.9667 7.46557 14.8193 7.61304 14.6389 7.61304ZM14.6389 6.20326H11.6095C11.4291 6.20326 11.2816 6.05579 11.2816 5.87541C11.2816 5.69504 11.4291 5.54757 11.6095 5.54757H14.6389C14.8193 5.54757 14.9667 5.69504 14.9667 5.87541C14.9667 6.05564 14.8193 6.20326 14.6389 6.20326ZM14.6389 4.79665H11.6095C11.4291 4.79665 11.2816 4.64918 11.2816 4.4688C11.2816 4.28842 11.4291 4.14095 11.6095 4.14095H14.6389C14.8193 4.14095 14.9667 4.28842 14.9667 4.4688C14.9667 4.64918 14.8193 4.79665 14.6389 4.79665ZM14.6389 3.38686H11.6095C11.4291 3.38686 11.2816 3.23939 11.2816 3.05902C11.2816 2.87864 11.4291 2.73117 11.6095 2.73117H14.6389C14.8193 2.73117 14.9667 2.87864 14.9667 3.05902C14.9667 3.23939 14.8193 3.38686 14.6389 3.38686Z" fill="white"/>
<path d="M9.86866 2.03605C9.86866 1.46563 9.40315 1 8.83261 1H4.67212V8.79315L9.86858 8.7933L9.86866 2.03605ZM5.42609 1.65583H6.72118V3.48857L6.07529 2.9476L5.42941 3.48857L5.42926 1.65583H5.42609ZM8.78334 7.61313H5.75396C5.57358 7.61313 5.42611 7.46566 5.42611 7.28528C5.42611 7.10491 5.57358 6.95744 5.75396 6.95744H8.78334C8.96372 6.95744 9.11119 7.10491 9.11119 7.28528C9.11119 7.46566 8.96704 7.61313 8.78334 7.61313ZM8.78334 6.20335H5.75396C5.57358 6.20335 5.42611 6.05588 5.42611 5.8755C5.42611 5.69512 5.57358 5.54765 5.75396 5.54765H8.78334C8.96372 5.54765 9.11119 5.69512 9.11119 5.8755C9.11119 6.05573 8.96704 6.20335 8.78334 6.20335ZM8.78334 4.79673H5.75396C5.57358 4.79673 5.42611 4.64926 5.42611 4.46888C5.42611 4.28851 5.57358 4.14104 5.75396 4.14104H8.78334C8.96372 4.14104 9.11119 4.28851 9.11119 4.46888C9.11119 4.64926 8.96704 4.79673 8.78334 4.79673Z" fill="white"/>
<path d="M14.3078 19.9082H13.3864L12.7766 18.8492H7.61607L7.0096 19.9082H6.08824C5.78666 19.9082 5.54077 20.1508 5.54077 20.4525C5.54077 20.7541 5.78666 21 6.08824 21H14.3076C14.606 21 14.8519 20.7541 14.8519 20.4525C14.8519 20.1508 14.606 19.9082 14.3076 19.9082H14.3078Z" fill="white"/>
<path d="M18.0783 4.28871H17.8718V5.27224H18.0783C18.2619 5.27224 18.4095 5.41971 18.4095 5.60341V14.4491H1.98353V5.27226H2.51802V4.28872H1.98686C1.44256 4.28872 1 4.73128 1 5.27558V17.2099C1 17.7542 1.44256 18.1968 1.98686 18.1968H18.0786C18.8031 18.1968 19.3933 17.6099 19.3933 16.8821V5.60349C19.3933 4.87564 18.8031 4.2888 18.0786 4.2888L18.0783 4.28871ZM10.1963 16.8131C9.92416 16.8131 9.70452 16.5935 9.70452 16.3213C9.70452 16.0491 9.92414 15.8295 10.1963 15.8295C10.4685 15.8295 10.6881 16.0491 10.6881 16.3213C10.6881 16.5933 10.4685 16.8131 10.1963 16.8131Z" fill="white"/>
</svg>
