<svg width="20" height="22" viewBox="0 0 20 22" fill="none" xmlns="http://www.w3.org/2000/svg">
<path d="M5.10793 9.92023H4.21381C3.50131 9.92023 2.92151 10.4997 2.92151 11.2125V12.1067C2.92151 12.8193 3.50131 13.399 4.21381 13.399H5.10793C5.82043 13.399 6.40023 12.8192 6.40023 12.1064V11.2124C6.40023 10.5002 5.82043 9.92023 5.10793 9.92023ZM5.60403 12.1065C5.60403 12.3804 5.38139 12.603 5.10808 12.603H4.21395C3.94063 12.603 3.71826 12.3804 3.71826 12.1065L3.7184 11.2124C3.7184 10.9391 3.94062 10.7167 4.2141 10.7167H5.10822C5.38154 10.7167 5.60417 10.9389 5.60417 11.2124L5.60403 12.1065Z" fill="white"/>
<path d="M15.4118 12.1061V11.2122C15.4118 10.5 14.8319 9.91994 14.1192 9.91994H13.2255C12.5129 9.91994 11.9332 10.4995 11.9332 11.2122V12.1064C11.9332 12.819 12.5127 13.3987 13.2255 13.3987H14.1192C14.8317 13.3988 15.4118 12.819 15.4118 12.1061ZM12.7295 12.1064V11.2122C12.7295 10.9389 12.952 10.7165 13.2255 10.7165H14.1192C14.3931 10.7165 14.6156 10.9388 14.6156 11.2122V12.1064C14.6156 12.3803 14.3931 12.6029 14.1192 12.6029H13.2255C12.9519 12.6029 12.7295 12.3803 12.7295 12.1064Z" fill="white"/>
<path d="M9.61377 14.2267H8.71935C8.00715 14.2267 7.42749 14.8065 7.42749 15.5191V16.4136C7.42735 17.1258 8.00686 17.7051 8.71935 17.7051H9.61377C10.3267 17.7051 10.9062 17.1258 10.9062 16.4136V15.5191C10.9062 14.8065 10.3267 14.2267 9.61377 14.2267ZM10.1093 16.4136C10.1093 16.6866 9.88682 16.9088 9.61377 16.9088H8.71935C8.44632 16.9088 8.2241 16.6866 8.2241 16.4136V15.5191C8.2241 15.2457 8.44617 15.0227 8.71935 15.0227H9.61377C9.88681 15.0227 10.1093 15.2455 10.1093 15.5191V16.4136Z" fill="white"/>
<path d="M9.61377 9.92023H8.71935C8.00715 9.92023 7.42749 10.4997 7.42749 11.2125V12.1067C7.42735 12.8193 8.00686 13.399 8.71935 13.399H9.61377C10.3267 13.399 10.9062 12.8192 10.9062 12.1064V11.2124C10.9062 10.5002 10.3267 9.92023 9.61377 9.92023ZM10.1093 12.1065C10.1093 12.3804 9.88682 12.603 9.61377 12.603H8.71935C8.44632 12.603 8.2241 12.3804 8.2241 12.1065L8.22395 11.2124C8.22395 10.9391 8.44603 10.7167 8.71921 10.7167H9.61363C9.88667 10.7167 10.1092 10.9389 10.1092 11.2124L10.1093 12.1065Z" fill="white"/>
<path d="M5.10793 14.2267H4.21381C3.50131 14.2267 2.92151 14.8065 2.92151 15.5191V16.4136C2.92151 17.1258 3.50131 17.7051 4.21381 17.7051H5.10793C5.82043 17.7051 6.40023 17.1258 6.40023 16.4136V15.5191C6.40023 14.8065 5.82043 14.2267 5.10793 14.2267ZM5.60403 16.4136C5.60403 16.6866 5.38139 16.9088 5.10808 16.9088H4.21395C3.94063 16.9088 3.71826 16.6866 3.71826 16.4136V15.5191C3.71826 15.2457 3.94048 15.0227 4.21395 15.0227H5.10808C5.3814 15.0227 5.60403 15.2455 5.60403 15.5191V16.4136Z" fill="white"/>
<path d="M19.3845 20.3546C18.903 19.8737 18.6267 19.2066 18.6267 18.5259V16.6748C18.6267 16.2395 18.5199 15.8294 18.3336 15.4662V5.33365H18.3332C18.3332 4.41445 17.5854 3.66697 16.6666 3.66697H14.1666L14.1667 2.41654C14.1667 2.18621 13.9805 2 13.7498 2C13.5197 2 13.3332 2.18634 13.3332 2.41669V3.66671H5.8333V2.41669C5.83358 2.18622 5.64724 2 5.41661 2C5.18614 2 5.00007 2.18634 5.00007 2.41669V3.66671H1.66653C0.747771 3.66671 0 4.41423 0 5.33339V18.6664C0 19.5857 0.747807 20.3331 1.66653 20.3331H12.5629C12.5563 20.3397 12.5501 20.3476 12.5433 20.3543C12.4166 20.4814 12.378 20.6726 12.4465 20.8381C12.5153 21.0041 12.6775 21.1124 12.8569 21.1124H15.076C15.076 21.6014 15.474 22 15.9637 22C16.4531 22 16.8514 21.6018 16.8514 21.1124H19.0704C19.2498 21.1124 19.4121 21.0045 19.4807 20.8381C19.549 20.6726 19.5113 20.4819 19.3846 20.3544L19.3845 20.3546ZM0.833587 5.33281C0.833587 4.87385 1.20698 4.49991 1.66707 4.49991L5.00017 4.50005V5.33324C4.54066 5.33324 4.16712 5.70737 4.16712 6.16644C4.16712 6.62569 4.54052 6.99992 5.00017 6.99992C5.45997 6.99992 5.83366 6.6258 5.83366 6.16644V4.49976H13.3336V5.33295C12.8741 5.33295 12.5001 5.70707 12.5001 6.16614C12.5001 6.6254 12.8739 6.99963 13.3336 6.99963C13.7935 6.99963 14.1671 6.62551 14.1671 6.16614V4.49947H16.6671C17.1274 4.49947 17.5006 4.8733 17.5006 5.33266V7.83271L0.833478 7.83286L0.833587 5.33281ZM13.3011 18.5262C13.3011 18.8613 13.2337 19.1926 13.1082 19.4999L1.66693 19.4998C1.20698 19.4998 0.833441 19.126 0.833441 18.6666V8.66668H17.5002V14.5034C17.0653 14.1947 16.5358 14.012 15.9641 14.012C14.4957 14.012 13.3011 15.2066 13.3011 16.675V18.5262ZM13.7432 20.2249C14.0313 19.7094 14.1889 19.1218 14.1889 18.5259V16.6749C14.1889 15.6955 14.9848 14.8999 15.9642 14.8999C16.9432 14.8999 17.7391 15.6956 17.7391 16.6749V18.5259C17.7391 19.1218 17.8964 19.7093 18.1848 20.2249H13.7432Z" fill="white"/>
</svg>
