<svg width="22" height="18" viewBox="0 0 22 18" fill="none" xmlns="http://www.w3.org/2000/svg">
<path fill-rule="evenodd" clip-rule="evenodd" d="M6.20428 3.87692H5.4V7.2H0V9.13846H1.08V16.0615H0V18H21.6V16.0615H20.52V9.13846H21.6V7.2H16.2V3.87692H15.3957C14.974 1.67065 13.0735 0 10.8001 0C8.52669 0 6.62593 1.67065 6.20428 3.87692ZM0.53991 16.6154H21.0599V17.4462H0.53991V16.6154ZM2.15991 9.13846H1.61991V16.0615H2.15991V9.13846ZM2.69991 9.13846V16.0615H7.01991V9.13846H2.69991ZM8.09991 9.13846H7.55991V16.0615H8.09991V9.13846ZM14.0399 9.13846H13.4999V16.0615H14.0399V9.13846ZM14.5799 9.13846V16.0615H18.8999V9.13846H14.5799ZM19.9799 9.13846H19.4399V16.0615H19.9799V9.13846ZM15.3899 13.0154H16.4699V15.2308H15.3899V13.0154ZM17.0099 13.0154H18.0899V15.2308H17.0099V13.0154ZM3.50991 13.0154H4.58991V15.2308H3.50991V13.0154ZM5.12991 13.0154H6.20991V15.2308H5.12991V13.0154ZM12.9599 13.2923V9.13846H8.63991V13.2923H12.9599ZM15.3899 9.96923H16.4699V12.1846H15.3899V9.96923ZM17.0099 9.96923H18.0899V12.1846H17.0099V9.96923ZM3.50991 9.96923H4.58991V12.1846H3.50991V9.96923ZM5.12991 9.96923H6.20991V12.1846H5.12991V9.96923ZM21.0599 7.75385H0.53991V8.58462H21.0599V7.75385ZM14.5799 7.2V5.53846H13.4999V7.2H12.4199V5.53846H11.3399V7.2H10.2599V5.53846H9.17991V7.2H8.09991V5.53846H7.01991V7.2H5.93991V4.43077H15.6599V7.2H14.5799ZM9.61146 0.732231C8.18694 1.1706 7.08268 2.37519 6.75598 3.87692H8.10704C8.18781 2.32562 8.93839 1.32438 9.61146 0.732231ZM10.53 0.731149C9.91951 1.10643 8.75637 2.05482 8.64808 3.877H10.53V0.731149ZM11.07 0.731149V3.877H12.9519C12.8434 2.05482 11.6805 1.10638 11.07 0.731149ZM11.9885 0.732231C12.6616 1.32485 13.4123 2.32562 13.493 3.87692H14.844C14.5173 2.37522 13.413 1.17046 11.9885 0.732231Z" fill="white"/>
</svg>
