<svg width="20" height="19" viewBox="0 0 20 19" fill="none" xmlns="http://www.w3.org/2000/svg">
<path d="M8.89025 10.9207L2.02029 17.7888C1.93239 17.8798 1.82723 17.9524 1.71096 18.0024C1.5947 18.0523 1.46965 18.0786 1.34312 18.0797C1.21658 18.0808 1.09109 18.0567 0.973978 18.0088C0.856862 17.9608 0.750461 17.8901 0.660984 17.8006C0.571507 17.7111 0.500746 17.6047 0.45283 17.4876C0.404914 17.3705 0.380802 17.245 0.381902 17.1185C0.383001 16.9919 0.40929 16.8669 0.459234 16.7506C0.509178 16.6344 0.581778 16.5292 0.672796 16.4413L7.65234 9.46175C7.59801 9.15918 7.61767 8.84795 7.70965 8.55462C7.80163 8.26129 7.9632 7.99456 8.18057 7.77719C8.39794 7.55982 8.66467 7.39825 8.958 7.30627C9.25133 7.21429 9.56256 7.19463 9.86513 7.24896L16.8475 0.26751C17.0273 0.0939186 17.268 -0.00213524 17.5179 3.60247e-05C17.7677 0.00220729 18.0067 0.10243 18.1834 0.279118C18.3601 0.455806 18.4603 0.694823 18.4625 0.944688C18.4647 1.19455 18.3686 1.43528 18.195 1.61501L11.326 8.48591C11.4473 8.82571 11.4697 9.19297 11.3905 9.54498C11.3113 9.89699 11.1339 10.2193 10.8788 10.4744C10.6236 10.7295 10.3013 10.907 9.94931 10.9862C9.5973 11.0654 9.23005 11.0421 8.89025 10.9207ZM16.0756 5.08191C17.8682 6.11493 19.0594 7.54247 19.0594 9.1244C19.0594 12.2825 14.3346 14.8355 9.52969 14.8422C8.55191 14.8421 7.57682 14.7399 6.62027 14.5373L8.39375 12.7647C9.05777 12.9722 9.76592 12.9941 10.4415 12.8279C11.117 12.6616 11.7342 12.3137 12.2261 11.8218C12.718 11.3299 13.066 10.7127 13.2322 10.0371C13.3984 9.36159 13.3766 8.65344 13.1691 7.98942L16.0756 5.08191ZM12.1113 3.65627L10.3635 5.40401C9.73648 5.26325 9.08402 5.28331 8.4668 5.46232C7.84958 5.64134 7.28764 5.9735 6.83321 6.42792C6.37878 6.88235 6.04662 7.44429 5.86761 8.06151C5.68859 8.67873 5.66854 9.3312 5.8093 9.95825L2.73407 13.0316C1.08067 12.01 0 10.6349 0 9.1244C0 5.96626 4.7496 3.39039 9.52969 3.40659C10.4007 3.40945 11.2708 3.49617 12.1113 3.65627Z" fill="#898989"/>
</svg>
