<svg width="11" height="18" viewBox="0 0 11 18" fill="none" xmlns="http://www.w3.org/2000/svg">
<path d="M3.26334 8.98339L9.95555 15.6756C10.0847 15.8003 10.1877 15.9495 10.2585 16.1144C10.3294 16.2794 10.3667 16.4568 10.3682 16.6363C10.3698 16.8158 10.3356 16.9938 10.2676 17.16C10.1996 17.3261 10.0992 17.4771 9.9723 17.604C9.84537 17.731 9.69442 17.8313 9.52826 17.8993C9.36211 17.9673 9.18409 18.0015 9.00458 17.9999C8.82506 17.9984 8.64766 17.9611 8.48272 17.8902C8.31777 17.8194 8.16859 17.7164 8.04388 17.5873L0.395836 9.93922C0.142382 9.68569 0 9.34188 0 8.98339C0 8.6249 0.142382 8.28108 0.395836 8.02755L8.04388 0.379511C8.29886 0.133241 8.64037 -0.00302922 8.99485 5.11077e-05C9.34933 0.00313144 9.68841 0.145316 9.93908 0.39598C10.1897 0.646644 10.3319 0.985733 10.335 1.34021C10.3381 1.69469 10.2018 2.0362 9.95555 2.29118L3.26334 8.98339Z" fill="black"/>
</svg>
